# xmcd
#
# Track frame offsets:
#	150
#	22205
#	27755
#	45159
#	50638
#	72195
#	77559
#	94502
#	100801
#	115798
#	123390
#	145747
#	152660
#	168444
#	173339
#	187929
#	195057
#	216169
#	220586
#	239657
#	247435
#	265169
#
# Disc length: 3681 seconds
#
# Revision: 1
# Processed by: cddbd v1.5.2PL0 Copyright (c) Steve Scherf et al.
# Submitted via: EasyCDDAExtractor 2011.0.0.0
#
DISCID=230e5f16
DTITLE=Olivia Newton-John - Christmas Wish
DYEAR=2007
DGENRE=Country
TTITLE0=O Come All Ye Faithful
TTITLE1=Angels We Have Heard On High (Interlude)
TTITLE2=Every Time It Snows
TTITLE3=Away In A Manger
TTITLE4=We Three Kings
TTITLE5=The First Noel
TTITLE6=A Mother's Christmas Wish
TTITLE7=Jesu, Joy Of Man's Desiring (Interlude)
TTITLE8=Angels In The Snow
TTITLE9=What Child Is This? (Interlude)
TTITLE10=Silent Night
TTITLE11=O Come, O Come Emmanuel (Interlude)
TTITLE12=All Through The Night
TTITLE13=Little Drummer Boy (Interlude)
TTITLE14=Underneath The Same Sky
TTITLE15=O Christmas Tree (Interlude)
TTITLE16=Little Star Of Bethlehem
TTITLE17=Deck The Halls (Interlude)
TTITLE18=Instrument Of Peace
TTITLE19=We Wish You A Merry Christmas (Interlude)
TTITLE20=Christmas On My Radio
TTITLE21=A Gift Of Love
EXTD=
EXTT0=
EXTT1=
EXTT2=
EXTT3=
EXTT4=
EXTT5=
EXTT6=
EXTT7=
EXTT8=
EXTT9=
EXTT10=
EXTT11=
EXTT12=
EXTT13=
EXTT14=
EXTT15=
EXTT16=
EXTT17=
EXTT18=
EXTT19=
EXTT20=
EXTT21=
PLAYORDER=
